<svg xmlns="http://www.w3.org/2000/svg" xmlns:xlink="http://www.w3.org/1999/xlink" version="1.1" x="0px" y="0px" viewBox="10 10 80 80" style="enable-background:new 0 0 100 100;" xml:space="preserve"><path fill="white" d="M74.836,21.196c-0.678,0-1.232,0-1.232,0l-0.01,8.221H9.833v1h63.76l-0.011,9.167H55.311  c-2.779-2.771-4.336-4.377-4.377-8.221c-0.678,0-1.232,0-1.232,0l-0.01,8.221H9.833v1h16.344l-0.01,8.667H9.833v1h16.332  l-0.011,9.167H9.833v1h16.32l-0.007,6.222c-1.439-0.877-3.883-0.876-6.288,0.154c-1.604,0.687-2.887,1.702-3.671,2.791H9.833v1  h5.789c-0.331,0.79-0.387,1.578-0.089,2.273c0.842,1.965,4.143,2.435,7.373,1.051c1.863-0.798,3.281-2.04,3.997-3.324h63.264v-1  H27.304c0.089-0.35,0.14-0.697,0.106-1.029c0.005-2.026,0.005-4.889,0.007-8.138h8.413c-0.458,2.1-1.476,4.027-2.396,5.271  c0.4,0,0.121,0,0.479,0c1.223-1.727,2.23-3.496,2.805-5.271h3.074c-0.853,1.133-1.17,2.355-0.733,3.375  c0.842,1.965,4.143,2.435,7.373,1.051c2.397-1.027,4.061-2.785,4.426-4.427h39.309v-1H50.936c0.005-2.249,0.005-5.505,0.007-9.167  h8.594c-0.286,2.516-1.499,4.913-2.577,6.373c0.4,0,0.121,0,0.479,0c1.476-2.084,2.644-4.229,3.107-6.373h3.147  c-0.853,1.133-1.17,2.355-0.733,3.375c0.842,1.965,4.143,2.435,7.373,1.051c2.397-1.027,4.061-2.785,4.426-4.427h15.408v-1h-15.33  c0.005-2.146,0.005-5.21,0.007-8.667h8.528c-0.378,2.33-1.504,4.51-2.51,5.873c0.4,0,0.121,0,0.479,0  c1.361-1.922,2.455-3.896,2.981-5.873h5.846v-1h-5.63c0.317-1.94,0.036-3.874-1.155-5.758c-1.169-1.357-2.225-2.454-3.172-3.409  h9.957v-1H79.212C76.433,26.646,74.877,25.039,74.836,21.196z M35.998,59.417h-8.581c0.002-2.899,0.005-6.053,0.014-9.167h1.171  C35.016,51.975,36.442,55.827,35.998,59.417z M49.672,57.574c-1.439-0.877-3.883-0.876-6.288,0.154  c-1.043,0.447-1.949,1.034-2.672,1.688h-3.713c0.484-2.141,0.271-4.281-1.043-6.359c-0.931-1.081-1.79-1.994-2.581-2.807H49.68  L49.672,57.574z M49.682,49.25H32.388c-3.118-3.12-4.883-4.673-4.972-8.667h22.276L49.682,49.25z M50.944,49.25  c0.002-2.677,0.006-5.531,0.014-8.345c6.701,1.405,8.669,4.884,8.64,8.345H50.944z M73.573,47.407  c-1.439-0.877-3.883-0.876-6.288,0.154c-1.043,0.447-1.949,1.034-2.672,1.688h-3.909c0.193-1.772-0.134-3.536-1.223-5.257  c-1.169-1.357-2.225-2.453-3.172-3.409h17.272L73.573,47.407z M83.481,39.583h-8.637c0.002-2.819,0.006-5.855,0.014-8.845  C81.883,32.211,83.708,35.962,83.481,39.583z"/>
</svg>
